Coordinates
version=1
nRows=13
nColumns=38
inDegrees=no

Units are S.I. units (second, meters, Newtons, ...)
If the header above contains a line with 'inDegrees', this indicates whether rotational values are in degrees (yes) or radians (no).

endheader
time	pelvis_tilt	pelvis_list	pelvis_rotation	pelvis_tx	pelvis_ty	pelvis_tz	hip_flexion_r	hip_adduction_r	hip_rotation_r	knee_angle_r	ankle_angle_r	subtalar_angle_r	mtp_angle_r	hip_flexion_l	hip_adduction_l	hip_rotation_l	knee_angle_l	ankle_angle_l	subtalar_angle_l	mtp_angle_l	lumbar_extension	lumbar_bending	lumbar_rotation	arm_flex_r	arm_add_r	arm_rot_r	elbow_flex_r	pro_sup_r	wrist_flex_r	wrist_dev_r	arm_flex_l	arm_add_l	arm_rot_l	elbow_flex_l	pro_sup_l	wrist_flex_l	wrist_dev_l
0	3.07701	1.49765	1.7351	0.66624	1.82757	0.953436	-0.015132	-0.0372876	-0.21395	0.102992	0.0873393	0	0	0.0273346	0.0325223	-0.0793956	0.172552	0.154537	0	0	0.0778854	0.00789348	0.0254896	-0.126667	-0.121983	0.00530983	0.441835	1.42907	0	0	-0.0725708	-0.150329	0.456145	0.527555	1.05811	0	0
0.01	3.07482	1.49935	1.74132	0.667989	1.82705	0.953386	0.00492704	-0.045173	-0.23528	0.149404	0.106367	0	0	0.0258715	0.0335269	-0.0753872	0.174688	0.156664	0	0	0.0749137	0.00772587	0.0234643	-0.119894	-0.118192	-0.0150649	0.42558	1.43986	0	0	-0.0699535	-0.151811	0.461516	0.526582	1.05425	0	0
0.02	3.03306	1.497	1.77581	0.670196	1.82519	0.952754	0.0253905	-0.0567915	-0.232933	0.188611	0.120939	0	0	0.0211744	0.0407794	-0.0802704	0.167437	0.156402	0	0	0.0802391	0.00755293	0.033259	-0.126425	-0.122062	-0.0234443	0.427126	1.45238	0	0	-0.0723623	-0.150316	0.468944	0.525307	1.05127	0	0
0.03	2.99934	1.50375	1.83201	0.673834	1.8258	0.953116	0.0248352	-0.0596748	-0.23555	0.206528	0.121354	0	0	0.0187932	0.0451658	-0.0501478	0.17509	0.157235	0	0	0.0671575	0.00487722	0.0130174	-0.121343	-0.122071	-0.0310162	0.425747	1.45992	0	0	-0.065165	-0.153672	0.479706	0.527006	1.04576	0	0
0.04	2.94242	1.50183	1.89319	0.676057	1.82514	0.952346	0.0552506	-0.0783479	-0.258974	0.270654	0.14418	0	0	0.0191546	0.0522813	-0.0427838	0.176353	0.15924	0	0	0.0674522	2.22068e-05	0.0108646	-0.122589	-0.122639	-0.0366301	0.426128	1.46193	0	0	-0.0645407	-0.157807	0.491159	0.531151	1.04011	0	0
0.05	2.88148	1.51472	1.94673	0.676275	1.82348	0.95297	0.05993	-0.0800742	-0.241419	0.308236	0.14887	0	0	-0.00742352	0.0531378	-0.0279657	0.158779	0.154763	0	0	0.0516651	3.90615e-05	0.0198393	-0.121417	-0.121995	-0.0414984	0.425721	1.46239	0	0	-0.0622755	-0.16337	0.502932	0.536305	1.03374	0	0
0.06	2.80058	1.50404	2.03972	0.680792	1.82442	0.951623	0.0975019	-0.103535	-0.246122	0.369296	0.161016	0	0	0.0111971	0.0668098	-0.0342989	0.176272	0.161105	0	0	0.0567066	-0.00737609	0.0102447	-0.121589	-0.126603	-0.0433809	0.428717	1.46398	0	0	-0.0582415	-0.16173	0.511352	0.53468	1.02924	0	0
0.07	2.73801	1.50352	2.10784	0.683454	1.82421	0.951106	0.123024	-0.116565	-0.237876	0.42439	0.165293	0	0	0.0101481	0.0741168	-0.0278957	0.178761	0.162949	0	0	0.052417	-0.0112862	0.00668457	-0.120975	-0.128324	-0.04632	0.430366	1.46448	0	0	-0.0546164	-0.162796	0.51933	0.534161	1.02661	0	0
0.08	2.66077	1.50433	2.18811	0.685832	1.82371	0.950645	0.14881	-0.128611	-0.223575	0.482242	0.16548	0	0	0.00452103	0.0813052	-0.0200559	0.177677	0.164407	0	0	0.0463863	-0.0152356	0.00561733	-0.120797	-0.129982	-0.0491269	0.432738	1.46373	0	0	-0.052389	-0.165147	0.526764	0.537433	1.02418	0	0
0.09	2.52562	1.51565	2.31912	0.686438	1.82197	0.951168	0.161399	-0.129368	-0.198039	0.533315	0.157942	0	0	-0.0220664	0.0823838	-0.000187113	0.161667	0.16175	0	0	0.029947	-0.0158048	0.0111935	-0.119856	-0.129236	-0.0517039	0.433787	1.46273	0	0	-0.0507065	-0.169266	0.53103	0.541538	1.02333	0	0
0.1	2.47302	1.50455	2.3832	0.690566	1.82271	0.949683	0.204813	-0.152361	-0.187127	0.604421	0.153057	0	0	-0.00772402	0.096961	-0.00492244	0.176479	0.167967	0	0	0.0321922	-0.0251946	0.00238561	-0.120002	-0.132176	-0.0552375	0.437721	1.46011	0	0	-0.0478392	-0.169926	0.537048	0.543712	1.02188	0	0
0.11	2.30867	1.51358	2.54293	0.690967	1.82105	0.950118	0.221359	-0.151287	-0.16039	0.65802	0.138087	0	0	-0.0325905	0.0977279	0.0128004	0.162488	0.166018	0	0	0.0156419	-0.0260198	0.00841057	-0.118779	-0.131133	-0.0576939	0.43858	1.45831	0	0	-0.0457047	-0.173677	0.539184	0.545932	1.02115	0	0
0.12	2.29812	1.504	2.56358	0.694554	1.82165	0.948722	0.264054	-0.170046	-0.149779	0.724345	0.124211	0	0	-0.0196516	0.109493	0.00425513	0.176559	0.1724	0	0	0.0165319	-0.0337268	0.000928528	-0.118589	-0.13352	-0.0602736	0.442447	1.45661	0	0	-0.042269	-0.173388	0.541263	0.545004	1.02118	0	0
